<mxfile host="app.diagrams.net" modified="2022-09-09T08:21:39.720Z" agent="5.0 (Windows NT 10.0; Win64; x64) AppleWebKit/537.36 (KHTML, like Gecko) Chrome/105.0.0.0 Safari/537.36 Edg/105.0.1343.27" etag="zWOBvjXFAHe3gfT_Eqn6" version="18.1.3" type="github">
  <diagram id="K-p_b9iJ9mVKqiKq9yK_" name="第 1 页">
    <mxGraphModel dx="2565" dy="1040" grid="1" gridSize="10" guides="1" tooltips="1" connect="1" arrows="1" fold="1" page="1" pageScale="1" pageWidth="827" pageHeight="1169" math="0" shadow="0">
      <root>
        <mxCell id="0" />
        <mxCell id="1" parent="0" />
        <mxCell id="DvYX6_WQdKN-JHmG3KwU-1" value="Edge&lt;br&gt;Client" style="rounded=1;whiteSpace=wrap;html=1;" vertex="1" parent="1">
          <mxGeometry x="40" y="180" width="120" height="60" as="geometry" />
        </mxCell>
        <mxCell id="DvYX6_WQdKN-JHmG3KwU-2" value="Cloud&lt;br&gt;Server" style="rounded=1;whiteSpace=wrap;html=1;" vertex="1" parent="1">
          <mxGeometry x="353" y="180" width="120" height="60" as="geometry" />
        </mxCell>
        <mxCell id="DvYX6_WQdKN-JHmG3KwU-3" value="" style="endArrow=none;html=1;rounded=0;entryX=0.5;entryY=1;entryDx=0;entryDy=0;" edge="1" parent="1" target="DvYX6_WQdKN-JHmG3KwU-1">
          <mxGeometry width="50" height="50" relative="1" as="geometry">
            <mxPoint x="100" y="1100" as="sourcePoint" />
            <mxPoint x="420" y="410" as="targetPoint" />
          </mxGeometry>
        </mxCell>
        <mxCell id="DvYX6_WQdKN-JHmG3KwU-4" value="" style="endArrow=none;html=1;rounded=0;entryX=0.5;entryY=1;entryDx=0;entryDy=0;" edge="1" parent="1">
          <mxGeometry width="50" height="50" relative="1" as="geometry">
            <mxPoint x="413" y="1090" as="sourcePoint" />
            <mxPoint x="412.99999999999994" y="240" as="targetPoint" />
          </mxGeometry>
        </mxCell>
        <mxCell id="DvYX6_WQdKN-JHmG3KwU-5" value="" style="endArrow=classic;html=1;rounded=0;" edge="1" parent="1">
          <mxGeometry width="50" height="50" relative="1" as="geometry">
            <mxPoint x="100" y="390" as="sourcePoint" />
            <mxPoint x="413" y="390" as="targetPoint" />
          </mxGeometry>
        </mxCell>
        <mxCell id="DvYX6_WQdKN-JHmG3KwU-6" value="websocket&lt;br&gt;connect&lt;br&gt;headers: 携带ClientID" style="text;html=1;strokeColor=none;fillColor=none;align=center;verticalAlign=middle;whiteSpace=wrap;rounded=0;" vertex="1" parent="1">
          <mxGeometry x="210" y="340" width="130" height="60" as="geometry" />
        </mxCell>
        <mxCell id="DvYX6_WQdKN-JHmG3KwU-7" value="外部服务" style="rounded=1;whiteSpace=wrap;html=1;" vertex="1" parent="1">
          <mxGeometry x="690" y="180" width="120" height="60" as="geometry" />
        </mxCell>
        <mxCell id="DvYX6_WQdKN-JHmG3KwU-8" value="" style="endArrow=none;html=1;rounded=0;entryX=0.5;entryY=1;entryDx=0;entryDy=0;" edge="1" parent="1">
          <mxGeometry width="50" height="50" relative="1" as="geometry">
            <mxPoint x="749" y="1090" as="sourcePoint" />
            <mxPoint x="749.17" y="240" as="targetPoint" />
          </mxGeometry>
        </mxCell>
        <mxCell id="DvYX6_WQdKN-JHmG3KwU-9" value="session模块&lt;br&gt;保存clientID以及conn&lt;br&gt;维持websocket" style="rounded=1;whiteSpace=wrap;html=1;" vertex="1" parent="1">
          <mxGeometry x="353" y="420" width="120" height="60" as="geometry" />
        </mxCell>
        <mxCell id="DvYX6_WQdKN-JHmG3KwU-11" value="开启服务&lt;br&gt;1.connect&lt;br&gt;2.处理外部请求" style="rounded=1;whiteSpace=wrap;html=1;labelBackgroundColor=#FFFFFF;fontColor=#000000;" vertex="1" parent="1">
          <mxGeometry x="353" y="270" width="120" height="60" as="geometry" />
        </mxCell>
        <mxCell id="DvYX6_WQdKN-JHmG3KwU-12" value="" style="endArrow=classic;html=1;rounded=0;fontColor=#000000;" edge="1" parent="1">
          <mxGeometry width="50" height="50" relative="1" as="geometry">
            <mxPoint x="750" y="570" as="sourcePoint" />
            <mxPoint x="413" y="570" as="targetPoint" />
          </mxGeometry>
        </mxCell>
        <mxCell id="DvYX6_WQdKN-JHmG3KwU-13" value="发起请求&lt;br&gt;/client/{id}/{scheme}/{host}{path:.*}" style="text;html=1;strokeColor=none;fillColor=none;align=center;verticalAlign=middle;whiteSpace=wrap;rounded=0;labelBackgroundColor=#FFFFFF;fontColor=#000000;" vertex="1" parent="1">
          <mxGeometry x="480" y="510" width="240" height="50" as="geometry" />
        </mxCell>
        <mxCell id="DvYX6_WQdKN-JHmG3KwU-15" value="Edge应用" style="rounded=1;whiteSpace=wrap;html=1;labelBackgroundColor=#FFFFFF;fontColor=#000000;" vertex="1" parent="1">
          <mxGeometry x="-250" y="180" width="150" height="60" as="geometry" />
        </mxCell>
        <mxCell id="DvYX6_WQdKN-JHmG3KwU-16" value="" style="endArrow=none;html=1;rounded=0;entryX=0.5;entryY=1;entryDx=0;entryDy=0;" edge="1" parent="1">
          <mxGeometry width="50" height="50" relative="1" as="geometry">
            <mxPoint x="-176.11" y="1100" as="sourcePoint" />
            <mxPoint x="-176.11" y="240" as="targetPoint" />
          </mxGeometry>
        </mxCell>
      </root>
    </mxGraphModel>
  </diagram>
</mxfile>
